<?xml version="1.0" standalone="no"?><!DOCTYPE svg PUBLIC "-//W3C//DTD SVG 1.1//EN" "http://www.w3.org/Graphics/SVG/1.1/DTD/svg11.dtd"><svg t="1719900296421" class="icon" viewBox="0 0 1024 1024" version="1.1" xmlns="http://www.w3.org/2000/svg" p-id="4247" xmlns:xlink="http://www.w3.org/1999/xlink" width="256" height="256"><path d="M750.728533 194.577067h-119.688533a102.6048 102.6048 0 0 0-102.621867 102.587733v197.154133h222.293334a102.6048 102.6048 0 0 0 102.6048-102.587733v-94.5664a102.570667 102.570667 0 0 0-102.587734-102.587733z" fill="#77DC6D" p-id="4248"></path><path d="M687.940267 210.807467h-58.146134a102.570667 102.570667 0 0 0-102.587733 102.587733v180.9408h160.733867a102.570667 102.570667 0 0 0 102.6048-102.587733v-78.353067a102.6048 102.6048 0 0 0-102.6048-102.587733z" fill="#32B16C" p-id="4249"></path><path d="M392.96 194.577067h-119.7056A102.570667 102.570667 0 0 0 170.666667 297.1648v94.5664a102.570667 102.570667 0 0 0 102.587733 102.587733h222.3104V297.181867a102.6048 102.6048 0 0 0-102.6048-102.6048z" fill="#FAD645" p-id="4250"></path><path d="M392.977067 210.807467h-58.146134a102.6048 102.6048 0 0 0-102.6048 102.587733v78.353067a102.570667 102.570667 0 0 0 102.6048 102.587733h160.733867V313.3952a102.570667 102.570667 0 0 0-102.587733-102.587733z" fill="#F9A503" p-id="4251"></path><path d="M273.2544 529.646933A102.6048 102.6048 0 0 0 170.666667 632.251733v94.5664a102.6048 102.6048 0 0 0 102.587733 102.6048h119.7056a102.6048 102.6048 0 0 0 102.6048-102.6048V529.646933H273.2544z" fill="#99D7FB" p-id="4252"></path><path d="M334.830933 529.646933a102.6048 102.6048 0 0 0-102.6048 102.6048v78.353067a102.621867 102.621867 0 0 0 102.6048 102.6048h58.146134a102.570667 102.570667 0 0 0 102.587733-102.6048V529.646933h-160.733867z" fill="#04A3FE" p-id="4253"></path><path d="M746.461867 529.646933H524.151467v197.1712a102.638933 102.638933 0 0 0 102.621866 102.6048h119.7056a102.621867 102.621867 0 0 0 102.6048-102.6048v-94.5664a102.656 102.656 0 0 0-102.621866-102.6048z" fill="#FAD645" p-id="4254"></path><path d="M683.6736 529.646933H522.922667v180.957867a102.6048 102.6048 0 0 0 102.6048 102.6048h58.146133a102.6048 102.6048 0 0 0 102.587733-102.6048v-78.353067a102.621867 102.621867 0 0 0-102.587733-102.6048z" fill="#F9A503" p-id="4255"></path></svg>